# xmcd
#
# Track frame offsets:
#	150
#	18337
#	33027
#	51792
#	68692
#	89177
#	105145
#	122447
#	138662
#	156515
#	172347
#	188755
#	206672
#	224497
#	240970
#	256622
#	274640
#	293170
#	307537
#
# Disc length: 4267 seconds
#
# Revision: 9
# Processed by: cddbd v1.5.2PL0 Copyright (c) Steve Scherf et al.
# Submitted via: EasyCDDAExtractor 8.1.2.3
#
DISCID=0410a913
DTITLE=Various Artist - All My Life
DYEAR=1997
DGENRE=Blues
TTITLE0=Hot Chocolate - It Started With A Kiss
TTITLE1=Bellamy Brothers - Let Your Love Flow
TTITLE2=Toto Cutugno - La Mia Musica
TTITLE3=Che Sara - Ricchi E Poveri
TTITLE4=Paul Anka - My Way
TTITLE5=Smokie - All My Life
TTITLE6=Please Don't Go - Kc and The Sunshine Band
TTITLE7=Lulu - To Love Somebody
TTITLE8=Mandy Winter - The Fire Still Burns
TTITLE9=Daliah Lavi - Die Erste Nacht Der Ewigkeit
TTITLE10=Ireen Sheer - Sentimental Song
TTITLE11=Mixed Emotions - One Way Love
TTITLE12=Juliane Werding - Es Geht Auch Ohne Dich
TTITLE13=Leo Sayer - More Than I Can Say
TTITLE14=Brother Beyond - When Will I See You Again
TTITLE15=Maggie Reilly - What About Tomorrows Children
TTITLE16=Jennifer Rush - A Broken Heart
TTITLE17=Tornero - I Santo California
TTITLE18=Adriano Celentano - Nata Per Me
EXTD=
EXTT0=
EXTT1=
EXTT2=
EXTT3=
EXTT4=
EXTT5=
EXTT6=
EXTT7=
EXTT8=
EXTT9=Deutsche Coverversion "To all the girl's I loved before" von Julio Igles
EXTT9=ias
EXTT10=
EXTT11=
EXTT12=
EXTT13=
EXTT14=
EXTT15=
EXTT16=
EXTT17=
EXTT18=
PLAYORDER=
